<svg xmlns="http://www.w3.org/2000/svg" version="1.1" xmlns:xlink="http://www.w3.org/1999/xlink" xmlns:svgjs="http://svgjs.com/svgjs" width="512" height="512" x="0" y="0" viewBox="0 0 512 512" style="enable-background:new 0 0 512 512" xml:space="preserve" class=""><g><path d="M156.384 338.053h199.233v44.478H156.384z" style="" transform="rotate(90 256 360.292)" fill="#d6694b" data-original="#d6694b"></path><path d="M322.608 459.909h-23.326c7.373-1.478 12.929-7.987 12.929-15.795 0-8.899-7.214-16.113-16.113-16.113h-80.195c-8.899 0-16.113 7.214-16.113 16.113 0 7.809 5.556 14.317 12.929 15.795h-23.326c-24.596 0-44.534 19.939-44.534 44.534v.057h222.284v-.057c-.001-24.596-19.94-44.534-44.535-44.534z" style="" fill="#ffe177" data-original="#ffe177" class=""></path><path d="M322.608 459.909h-23.326c7.373-1.478 12.929-7.987 12.929-15.795 0-8.899-7.214-16.113-16.113-16.113h-40c8.899 0 16.113 7.214 16.113 16.113 0 7.809-5.556 14.317-12.929 15.795h23.326c24.596 0 44.534 19.939 44.534 44.534v.057h40v-.057c0-24.596-19.939-44.534-44.534-44.534z" style="" fill="#ffd15b" data-original="#ffd15b"></path><path d="M97.982 436.832c-36.353.132-66.118-29.234-66.482-65.575h131.974c-.357 35.666-29.5 65.575-65.492 65.575zM415.008 436.832c-36.353.132-66.118-29.234-66.482-65.575H480.5c-.357 35.666-29.5 65.575-65.492 65.575z" style="" fill="#ffc344" data-original="#ffc344"></path><path d="M440.022 216.085h-57.8c-15.395 0-29.296-8.59-36.904-22.007-8.515-15.015-24.904-23.14-41.897-22.584v-12.072C303.421 133.231 282.19 112 256 112c-26.19 0-47.421 21.231-47.421 47.421v12.072c-17.047-.519-33.359 7.529-41.897 22.584-7.609 13.417-21.509 22.007-36.904 22.007h-57.8c-24.564 0-44.478 19.964-44.478 44.591h457c0-24.626-19.913-44.59-44.478-44.59z" style="" fill="#ffe177" data-original="#ffe177" class=""></path><path d="M263.421 159.421v12.072c16.993-.556 33.382 7.569 41.897 22.584 7.609 13.417 21.509 22.007 36.904 22.007h40c-15.395 0-29.296-8.59-36.904-22.007-8.515-15.015-24.904-23.14-41.897-22.584v-12.072C303.421 133.231 282.19 112 256 112a47.23 47.23 0 0 0-20 4.423c16.193 7.545 27.421 23.956 27.421 42.998zM440.022 216.085h-40c24.564 0 44.478 19.964 44.478 44.591h40c0-24.627-19.913-44.591-44.478-44.591z" style="" fill="#ffd15b" data-original="#ffd15b"></path><circle cx="97.487" cy="73.112" r="65.612" style="" fill="#80d261" data-original="#80d261" class=""></circle><circle cx="414.513" cy="73.112" r="65.612" style="" fill="#fe5694" data-original="#fe5694"></circle><circle cx="256" cy="160.333" r="16" style="" fill="#d6694b" data-original="#d6694b"></circle><path d="M233.761 428V260.676h44.478V428M322.608 459.909h-23.326c7.373-1.478 12.929-7.987 12.929-15.795v0c0-8.899-7.214-16.113-16.113-16.113h-80.195c-8.899 0-16.113 7.214-16.113 16.113v0c0 7.809 5.556 14.317 12.929 15.795h-23.326c-24.596 0-44.534 19.939-44.534 44.534v.057h222.284v-.057c-.001-24.596-19.94-44.534-44.535-44.534zM97.982 436.832c-36.353.132-66.118-29.234-66.482-65.575h131.974c-.357 35.666-29.5 65.575-65.492 65.575zM51.5 371.257l45.987-110.581 45.987 110.581M415.008 436.832c-36.353.132-66.118-29.234-66.482-65.575H480.5c-.254 25.36-15.062 47.811-36.538 58.667M368.526 371.257l45.987-110.581L460.5 371.257M440.022 216.085h-57.8c-15.395 0-29.296-8.59-36.904-22.007-8.515-15.015-24.904-23.14-41.897-22.584v-12.072C303.421 133.231 282.19 112 256 112h0c-26.19 0-47.421 21.231-47.421 47.421v12.072c-17.047-.519-33.359 7.529-41.897 22.584-7.609 13.417-21.509 22.007-36.904 22.007h-57.8c-24.564 0-44.478 19.964-44.478 44.591v0h457v0c0-24.626-19.913-44.59-44.478-44.59zM68.93 14.024C77.564 9.844 87.252 7.5 97.487 7.5c36.237 0 65.612 29.376 65.612 65.612s-29.375 65.612-65.612 65.612-65.612-29.376-65.612-65.612c0-13.722 4.212-26.459 11.414-36.991" style="stroke-width:15;stroke-linecap:round;stroke-linejoin:round;stroke-miterlimit:10;" fill="none" stroke="#000000" stroke-width="15" stroke-linecap="round" stroke-linejoin="round" stroke-miterlimit="10" data-original="#000000" class=""></path><path d="m70.551 79.71 13.558 13.559 40.315-40.314" style="stroke-width:15;stroke-linecap:round;stroke-linejoin:round;stroke-miterlimit:10;" fill="none" stroke="#000000" stroke-width="15" stroke-linecap="round" stroke-linejoin="round" stroke-miterlimit="10" data-original="#000000" class=""></path><circle cx="414.513" cy="73.112" r="65.612" style="stroke-width:15;stroke-linecap:round;stroke-linejoin:round;stroke-miterlimit:10;" fill="none" stroke="#000000" stroke-width="15" stroke-linecap="round" stroke-linejoin="round" stroke-miterlimit="10" data-original="#000000" class=""></circle><path d="m394.356 93.269 40.314-40.314M434.67 93.269l-40.314-40.314" style="stroke-width:15;stroke-linecap:round;stroke-linejoin:round;stroke-miterlimit:10;" fill="none" stroke="#000000" stroke-width="15" stroke-linecap="round" stroke-linejoin="round" stroke-miterlimit="10" data-original="#000000" class=""></path><circle cx="256" cy="160.333" r="16" style="stroke-width:15;stroke-linecap:round;stroke-linejoin:round;stroke-miterlimit:10;" fill="none" stroke="#000000" stroke-width="15" stroke-linecap="round" stroke-linejoin="round" stroke-miterlimit="10" data-original="#000000" class=""></circle><path d="M198.667 221h114.666" style="stroke-width:15;stroke-linecap:round;stroke-linejoin:round;stroke-miterlimit:10;" fill="none" stroke="#000000" stroke-width="15" stroke-linecap="round" stroke-linejoin="round" stroke-miterlimit="10" data-original="#000000" class=""></path></g></svg>