<svg xmlns="http://www.w3.org/2000/svg" version="1.1" xmlns:xlink="http://www.w3.org/1999/xlink" xmlns:svgjs="http://svgjs.com/svgjs" width="512" height="512" x="0" y="0" viewBox="0 0 511.5 511.5" style="enable-background:new 0 0 512 512" xml:space="preserve" class=""><g><path d="M97.217 511.5h265.55V317.83c0-46.31-37.54-83.85-83.85-83.85h-34.19v.1c0 10.5-4.26 20.02-11.15 26.9-6.88 6.89-16.4 11.15-26.9 11.15-21.02 0-38.06-17.04-38.06-38.05l.01-.1h-34.19c-46.31 0-83.85 37.54-83.85 83.85v138.26c0 28.23 22.62 47.09 46.63 47.86v7.55z" style="" fill="#d6fd9c" data-original="#d6fd9c" class=""></path><path d="M244.728 195.011v39.066c0 21.016-17.037 38.053-38.053 38.053s-38.053-17.037-38.053-38.053v-39.066h76.106zM257.925 315.906c-12.51-11.698-32.022-11.438-44.216.589l-42.137 41.561 45.69 45.69 41.573-42.096c12.627-12.786 12.215-33.471-.91-45.744z" style="" fill="#ffdba9" data-original="#ffdba9" class=""></path><path d="M193.621 235.478v-40.466h-25v39.066c0 16.849 10.955 31.131 26.127 36.136a528.804 528.804 0 0 1-1.127-34.736z" style="" fill="#ffb87e" data-original="#ffb87e" class=""></path><path d="M141.253 88.286v64.141c0 35.901 29.075 65.02 64.977 65.074 35.977.054 65.171-29.097 65.171-65.074V88.286H141.253z" style="" fill="#ffdba9" data-original="#ffdba9" class=""></path><path d="M166.253 152.426v-64.14h-25v64.141c0 35.901 29.075 65.02 64.977 65.074a65.435 65.435 0 0 0 12.605-1.212c-29.965-5.83-52.582-32.202-52.582-63.863z" style="" fill="#ffb87e" data-original="#ffb87e" class=""></path><path d="M236.593 95.28h-95.34c-30.087 0-42.1-24.39-42.1-54.477V7.5H222.57a44.843 44.843 0 0 1 39.526 23.662c29.288 10.492 52.437 34.973 9.304 99.091.001 0-8.258-34.973-34.807-34.973z" style="" fill="#ecbc7c" data-original="#ecbc7c"></path><path d="M124.153 40.803V7.5h-25v33.303c0 30.087 12.012 54.477 42.099 54.477h25c-30.086 0-42.099-24.39-42.099-54.477z" style="" fill="#c59654" data-original="#c59654"></path><path d="M75.587 317.83c0-32.45 26.399-58.85 58.85-58.85h43.476c-5.786-6.675-9.296-15.376-9.296-24.9l.01-.1h-34.19c-46.31 0-83.85 37.54-83.85 83.85v138.26c0 19.329 10.606 34.261 25 42.006V317.83z" style="" fill="#aaf800" data-original="#aaf800"></path><path d="M422.227 137.213c-10.037 0-19.18 3.823-26.056 10.091-6.876-6.268-16.019-10.091-26.056-10.091-21.367 0-38.688 13.904-38.688 35.271 0 50.568 64.744 74.729 64.744 74.729s64.744-24.161 64.744-74.729c.001-21.367-17.321-35.271-38.688-35.271z" style="" fill="#fb8065" data-original="#fb8065"></path><path d="M362.299 172.484c0-15.605 9.245-27.222 22.552-32.356a38.54 38.54 0 0 0-14.734-2.915c-21.367 0-38.688 13.904-38.688 35.271 0 50.568 64.744 74.729 64.744 74.729s6.529-2.439 15.436-7.38c-19.152-10.626-49.31-32.834-49.31-67.349z" style="" fill="#e25735" data-original="#e25735"></path><path d="M148.757 7.5h73.81c16.53 0 31.72 9.09 39.53 23.66 29.29 10.49 52.44 34.98 9.3 99.09 0 0-8.26-34.97-34.8-34.97h-95.34c-30.09 0-42.1-24.39-42.1-54.48V7.5h34.6" style="stroke-width:15;stroke-miterlimit:10;" fill="none" stroke="#000000" stroke-width="15" stroke-miterlimit="10" data-original="#000000" class=""></path><path d="M141.253 88.286v64.141c0 35.901 29.075 65.02 64.977 65.074 35.977.054 65.171-29.097 65.171-65.074v-22.173M114.483 413.891l-28.341 28.341M171.201 357.673l45.958 45.958M362.767 511.5V411.25M244.727 233.98h34.19c46.31 0 83.85 37.54 83.85 83.85v78.42M114.974 317.83v96.05l98.734-97.385c12.194-12.027 31.706-12.287 44.216-.589 13.125 12.273 13.537 32.958.91 45.744l-126.4 127.99c-30.02 30.45-81.85 9.19-81.85-33.55V317.83c0-46.309 37.541-83.85 83.85-83.85h34.19M298.371 317.83V511.5" style="stroke-width:15;stroke-miterlimit:10;" fill="none" stroke="#000000" stroke-width="15" stroke-miterlimit="10" data-original="#000000" class=""></path><path d="M244.728 205.011v29.066c0 21.016-17.037 38.053-38.053 38.053s-38.053-17.037-38.053-38.053v-29.066M422.227 137.213c-10.037 0-19.18 3.823-26.056 10.091-6.876-6.268-16.019-10.091-26.056-10.091-21.367 0-38.688 13.904-38.688 35.271 0 50.568 64.744 74.729 64.744 74.729s64.744-24.161 64.744-74.729c.001-21.367-17.321-35.271-38.688-35.271z" style="stroke-width:15;stroke-miterlimit:10;" fill="none" stroke="#000000" stroke-width="15" stroke-miterlimit="10" data-original="#000000" class=""></path><path d="M373.671 187.213h15M403.671 187.213h15" style="stroke-width:15;stroke-miterlimit:10;" fill="none" stroke="#ffffff" stroke-width="15" stroke-miterlimit="10" data-original="#ffffff"></path></g></svg>