<?xml version="1.0" encoding="UTF-8" standalone="no"?>
<!-- Uploaded to: SVG Repo, www.svgrepo.com, Generator: SVG Repo Mixer Tools -->

<svg
   fill="#000000"
   width="444"
   height="444"
   viewBox="-7 0 17.76 17.76"
   version="1.1"
   id="svg6"
   sodipodi:docname="instagram-svgrepo-com.svg"
   inkscape:version="1.2.2 (b0a8486541, 2022-12-01)"
   xmlns:inkscape="http://www.inkscape.org/namespaces/inkscape"
   xmlns:sodipodi="http://sodipodi.sourceforge.net/DTD/sodipodi-0.dtd"
   xmlns="http://www.w3.org/2000/svg"
   xmlns:svg="http://www.w3.org/2000/svg">
  <defs
     id="defs10" />
  <sodipodi:namedview
     id="namedview8"
     pagecolor="#ffffff"
     bordercolor="#666666"
     borderopacity="1.0"
     inkscape:showpageshadow="2"
     inkscape:pageopacity="0.0"
     inkscape:pagecheckerboard="0"
     inkscape:deskcolor="#d1d1d1"
     showgrid="false"
     inkscape:zoom="0.295"
     inkscape:cx="-118.64407"
     inkscape:cy="220.33898"
     inkscape:window-width="1876"
     inkscape:window-height="1053"
     inkscape:window-x="985"
     inkscape:window-y="2160"
     inkscape:window-maximized="1"
     inkscape:current-layer="svg6" />
  <title
     id="title2">instagram</title>
  <path
     d="M 7.48,4.16 C 7.48,4.64 7.08,5 6.64,5 6.16,5 5.8,4.6 5.8,4.16 5.8,3.68 6.2,3.32 6.64,3.32 7.08,3.28 7.48,3.68 7.48,4.16 Z m 3.28,0.36 v 8.72 c 0,2.48 -2.04,4.52 -4.52,4.52 H -2.48 C -4.96,17.76 -7,15.72 -7,13.24 V 4.52 C -7,2.04 -4.96,0 -2.48,0 h 8.72 c 2.52,0 4.52,2.04 4.52,4.52 z m -1.68,0 C 9.08,2.96 7.8,1.68 6.24,1.68 h -8.72 c -1.56,0 -2.84,1.28 -2.84,2.84 v 8.72 c 0,1.56 1.28,2.84 2.84,2.84 h 8.72 c 1.6,0 2.88,-1.28 2.88,-2.84 z M 6.52,8.88 c 0,-2.56 -2.08,-4.64 -4.64,-4.64 -2.56,0 -4.64,2.08 -4.64,4.64 0,2.56 2.08,4.64 4.64,4.64 2.56,0 4.64,-2.08 4.64,-4.64 z m -1.68,0 c 0,1.64 -1.32,2.96 -2.96,2.96 -1.64,0 -2.96,-1.32 -2.96,-2.96 0,-1.64 1.32,-2.96 2.96,-2.96 1.64,0 2.96,1.32 2.96,2.96 z"
     id="path4" />
</svg>
