<svg xmlns="http://www.w3.org/2000/svg" version="1.1" xmlns:xlink="http://www.w3.org/1999/xlink" xmlns:svgjs="http://svgjs.com/svgjs" width="512" height="512" x="0" y="0" viewBox="0 0 511.998 511.998" style="enable-background:new 0 0 512 512" xml:space="preserve" class=""><g><path fill="#c3ddff" d="m391.346 127.08-.651-9.849a39.953 39.953 0 0 0-28.929-12.395h-211.58a39.953 39.953 0 0 0-28.929 12.395v9.849l54.658 89.932H344.76z" data-original="#c3ddff"></path><path fill="#a4ccff" d="M150.186 104.835a39.953 39.953 0 0 0-28.929 12.395v9.849l27.475 45.207 47.332-67.451z" data-original="#a4ccff" class=""></path><path fill="#dbeaff" d="m255.976 104.835-76.037 112.177 4.741 4.618h139.666l7.667-4.618zM121.257 117.231l-75.959 79.725a29.074 29.074 0 0 0-8.026 20.057l5.026 4.617h129.715l7.926-4.617z" data-original="#dbeaff"></path><path fill="#c3ddff" d="m117.346 217.012 34.053-48.528-30.143-51.254-75.959 79.725a29.074 29.074 0 0 0-8.026 20.057l5.026 4.617h77.444z" data-original="#c3ddff"></path><path fill="#dbeaff" d="M474.68 217.012a29.078 29.078 0 0 0-8.026-20.057l-75.959-79.725-58.682 99.781 5.833 4.617h133z" data-original="#dbeaff"></path><path fill="#a4ccff" d="M37.272 217.012c0 8.382 2.989 16.49 8.431 22.866l179.101 209.838a40.98 40.98 0 0 0 62.343 0l179.101-209.838a35.222 35.222 0 0 0 8.431-22.866z" data-original="#a4ccff" class=""></path><path fill="#8bb3ea" d="M117.346 217.012H37.271c0 8.382 2.99 16.49 8.432 22.866l179.101 209.838a40.982 40.982 0 0 0 19.917 12.794z" data-original="#8bb3ea" class=""></path><path fill="#c3ddff" d="M255.976 464.092c3.847 0 7.631-.547 11.255-1.582l64.782-245.498H179.939l64.782 245.498a40.93 40.93 0 0 0 11.255 1.582z" data-original="#c3ddff"></path><path d="M361.789 97.419h-24.317c-4.143 0-7.5 3.358-7.5 7.5s3.357 7.5 7.5 7.5h24.317c6.979 0 13.781 2.296 19.338 6.408l-49.541 84.239-61.443-90.647h32.328c4.143 0 7.5-3.358 7.5-7.5s-3.357-7.5-7.5-7.5H150.208c-12.924 0-25.448 5.366-34.359 14.722l-75.96 79.725c-14.428 15.143-12.501 38.162.131 52.964l179.103 209.838c9.453 11.075 23.087 17.007 36.876 17.007 13.745 0 27.407-5.914 36.877-17.007l81.881-95.934a7.502 7.502 0 0 0-11.41-9.739l-81.88 95.934c-.785.92-1.615 1.79-2.484 2.611l58.831-222.945h128.354a27.732 27.732 0 0 1-5.602 10.496L386.3 322.104a7.502 7.502 0 0 0 11.41 9.739l74.266-87.012c12.707-14.884 14.469-37.912.132-52.965h-.001l-75.958-79.724c-8.913-9.357-21.436-14.723-34.36-14.723zm-105.79 20.867 61.891 91.31H194.107zm-105.79-5.867h91.646l-61.443 90.647-49.542-84.238c5.557-4.113 12.36-6.409 19.339-6.409zm-99.458 89.792 69.103-72.528 46.997 79.912H46.133c1.039-2.804 2.796-5.471 4.618-7.384zm179.78 242.719-179.1-209.838a27.744 27.744 0 0 1-5.601-10.496h128.354l58.831 222.945a33.559 33.559 0 0 1-2.484-2.611zm30.634 11.34a34.091 34.091 0 0 1-10.333 0l-61.135-231.674h132.604zm200.082-254.057c1.861 1.953 3.574 4.569 4.617 7.383H345.147l46.996-79.912 69.104 72.529zM504.498 127.163h-26.546c-4.143 0-7.5 3.358-7.5 7.5s3.357 7.5 7.5 7.5h26.546c4.143 0 7.5-3.358 7.5-7.5s-3.357-7.5-7.5-7.5zM465.596 97.332l18.771-18.771a7.5 7.5 0 0 0-10.607-10.606l-18.771 18.771a7.5 7.5 0 1 0 10.607 10.606zM410.157 47.822v26.546c0 4.142 3.357 7.5 7.5 7.5s7.5-3.358 7.5-7.5V47.822c0-4.142-3.357-7.5-7.5-7.5s-7.5 3.358-7.5 7.5zM7.5 142.163h26.546c4.143 0 7.5-3.358 7.5-7.5s-3.357-7.5-7.5-7.5H7.5c-4.143 0-7.5 3.358-7.5 7.5s3.357 7.5 7.5 7.5zM46.402 97.332a7.5 7.5 0 0 0 10.607-10.606l-18.77-18.772a7.5 7.5 0 0 0-10.607 0 7.5 7.5 0 0 0 0 10.606zM94.341 81.868a7.5 7.5 0 0 0 7.5-7.5V47.822c0-4.142-3.357-7.5-7.5-7.5s-7.5 3.358-7.5 7.5v26.546a7.5 7.5 0 0 0 7.5 7.5z" fill="#000000" data-original="#000000" class=""></path></g></svg>