<?xml version="1.0" encoding="UTF-8" standalone="no"?>
<!-- Created with Inkscape (http://www.inkscape.org/) -->

<svg
   width="176.79041mm"
   height="123.02811mm"
   viewBox="0 0 176.79041 123.02811"
   version="1.1"
   id="svg5"
   xml:space="preserve"
   inkscape:version="1.2.2 (b0a8486541, 2022-12-01)"
   sodipodi:docname="logo.svg"
   xmlns:inkscape="http://www.inkscape.org/namespaces/inkscape"
   xmlns:sodipodi="http://sodipodi.sourceforge.net/DTD/sodipodi-0.dtd"
   xmlns="http://www.w3.org/2000/svg"
   xmlns:svg="http://www.w3.org/2000/svg"><sodipodi:namedview
     id="namedview7"
     pagecolor="#ffffff"
     bordercolor="#666666"
     borderopacity="1.0"
     inkscape:showpageshadow="2"
     inkscape:pageopacity="0.0"
     inkscape:pagecheckerboard="0"
     inkscape:deskcolor="#d1d1d1"
     inkscape:document-units="mm"
     showgrid="false"
     inkscape:zoom="1.1893044"
     inkscape:cx="158.91642"
     inkscape:cy="253.08912"
     inkscape:window-width="1876"
     inkscape:window-height="1053"
     inkscape:window-x="1048"
     inkscape:window-y="2160"
     inkscape:window-maximized="1"
     inkscape:current-layer="layer1" /><defs
     id="defs2" /><g
     inkscape:label="Layer 1"
     inkscape:groupmode="layer"
     id="layer1"
     transform="translate(-18.499049,-16.357039)"><g
       id="g2858"
       transform="matrix(1.7772018,0,0,-1.7772018,52.560835,114.98387)"><path
         transform="rotate(-129.83905,26.424782,21.830495)"
         d="M 31.545456,33.363636 15.64208,52.416194 7.0937687,29.117188 -1.4545428,5.8181818 22.997144,10.06463 47.448831,14.311078 Z"
         inkscape:randomized="0"
         inkscape:rounded="0"
         inkscape:flatsided="false"
         sodipodi:arg2="1.7427482"
         sodipodi:arg1="0.69555062"
         sodipodi:r2="28.65699"
         sodipodi:r1="14.328495"
         sodipodi:cy="24.181818"
         sodipodi:cx="20.545456"
         sodipodi:sides="3"
         id="path1880"
         style="fill:none;fill-opacity:1;fill-rule:evenodd;stroke:#000000;stroke-width:2;stroke-linecap:round;stroke-linejoin:miter;stroke-miterlimit:4;stroke-dasharray:none;stroke-opacity:1"
         sodipodi:type="star" /><path
         sodipodi:nodetypes="cc"
         id="path1902"
         d="M 9.4999998,35.272727 H 54.5"
         style="fill:none;fill-rule:evenodd;stroke:#000000;stroke-width:2;stroke-linecap:butt;stroke-linejoin:miter;stroke-miterlimit:4;stroke-dasharray:none;stroke-opacity:1" /></g><g
       aria-label="
IK-HOLCÁN"
       id="text397"
       style="font-size:24.1899px;line-height:2.85;font-family:'Varela Round';-inkscape-font-specification:'Varela Round';letter-spacing:0px;word-spacing:0px;stroke-width:0.283474"><path
         d="m 19.070428,139.05296 q -0.265758,0 -0.425212,-0.15946 -0.146167,-0.17274 -0.146167,-0.4385 v -16.49027 q 0,-0.26576 0.146167,-0.42521 0.159454,-0.17274 0.425212,-0.17274 h 0.398637 q 0.265758,0 0.411924,0.17274 0.159455,0.15945 0.159455,0.42521 V 138.455 q 0,0.26576 -0.159455,0.4385 -0.146166,0.15946 -0.411924,0.15946 z"
         style="font-family:Bambino-Light;-inkscape-font-specification:Bambino-Light"
         id="path699" /><path
         d="m 34.465586,129.31293 7.467795,9.1155 q 0.18603,0.22589 0.09302,0.42521 -0.07973,0.19932 -0.318909,0.19932 h -0.730834 q -0.279046,0 -0.465077,-0.1063 -0.18603,-0.10631 -0.4385,-0.41193 l -6.697097,-8.21192 -2.338669,2.28552 v 5.84667 q 0,0.26576 -0.159454,0.4385 -0.146167,0.15946 -0.411925,0.15946 h -0.398637 q -0.265758,0 -0.425212,-0.15946 -0.146167,-0.17274 -0.146167,-0.4385 v -16.49027 q 0,-0.26576 0.146167,-0.42521 0.159454,-0.17274 0.425212,-0.17274 h 0.398637 q 0.265758,0 0.411925,0.17274 0.159454,0.15945 0.159454,0.42521 v 8.83645 l 9.062342,-8.91618 q 0.305621,-0.30562 0.478364,-0.41192 0.172742,-0.1063 0.451788,-0.1063 h 0.704258 q 0.25247,0 0.345485,0.2126 0.106304,0.21261 -0.09302,0.41193 z"
         style="letter-spacing:4.23333px"
         id="path701" /><path
         d="m 49.2495,131.51872 q -0.57138,0 -0.57138,-0.5448 v -0.17274 q 0,-0.54481 0.57138,-0.54481 h 7.972734 q 0.544804,0 0.544804,0.54481 v 0.17274 q 0,0.5448 -0.544804,0.5448 z"
         style="letter-spacing:4.23333px"
         id="path703" /><path
         d="m 67.036477,139.05296 q -0.265758,0 -0.425212,-0.15946 -0.146167,-0.17274 -0.146167,-0.4385 v -16.49027 q 0,-0.26576 0.146167,-0.42521 0.159454,-0.17274 0.425212,-0.17274 h 0.398637 q 0.265758,0 0.411925,0.17274 0.159454,0.15945 0.159454,0.42521 v 7.48108 h 10.896071 v -7.48108 q 0,-0.26576 0.146166,-0.42521 0.159455,-0.17274 0.425213,-0.17274 h 0.372061 q 0.571379,0 0.571379,0.59795 V 138.455 q 0,0.59796 -0.571379,0.59796 h -0.372061 q -0.265758,0 -0.425213,-0.15946 -0.146166,-0.17274 -0.146166,-0.4385 v -7.65382 H 68.006493 v 7.65382 q 0,0.26576 -0.159454,0.4385 -0.146167,0.15946 -0.411925,0.15946 z"
         style="letter-spacing:4.23333px"
         id="path705" /><path
         d="m 97.925318,139.38516 q -1.966608,0 -3.707322,-0.70426 -1.727426,-0.70426 -2.963199,-1.91346 -1.235774,-1.22248 -1.95332,-2.92333 -0.717546,-1.71414 -0.717546,-3.64089 0,-2.57785 1.209198,-4.67733 1.222486,-2.09949 3.361836,-3.2954 2.13935,-1.19591 4.770353,-1.19591 1.95332,0 3.680742,0.70426 1.74072,0.70425 2.97649,1.92674 1.23577,1.2092 1.95332,2.91005 0.71755,1.70085 0.71755,3.62759 0,1.92675 -0.71755,3.64089 -0.71755,1.70085 -1.95332,2.92333 -1.23577,1.2092 -2.97649,1.91346 -1.727422,0.70426 -3.680742,0.70426 z m -3.97308,-2.40511 q 1.780578,1.00988 3.97308,1.00988 2.192502,0 3.973082,-1.00988 1.78057,-1.00988 2.79045,-2.79046 1.00988,-1.78058 1.00988,-3.98637 0,-1.6477 -0.59795,-3.09608 -0.58467,-1.44838 -1.62112,-2.47154 -1.02317,-1.02317 -2.47155,-1.60784 -1.448382,-0.59795 -3.082792,-0.59795 -2.192502,0 -3.97308,1.00988 -1.780577,0.99659 -2.803745,2.77717 -1.009879,1.78057 -1.009879,3.98636 0,2.20579 1.009879,3.98637 1.023168,1.78058 2.803745,2.79046 z"
         style="font-size:27.2136px;font-family:Goldplay;-inkscape-font-specification:Goldplay;letter-spacing:4.49792px"
         id="path707" /><path
         d="m 116.24265,139.05296 q -0.57138,0 -0.57138,-0.57138 v -16.51685 q 0,-0.26576 0.14616,-0.42521 0.15946,-0.17274 0.42522,-0.17274 h 0.39863 q 0.26576,0 0.41193,0.17274 0.15945,0.15945 0.15945,0.42521 v 15.73286 h 8.38466 q 0.62453,0 0.62453,0.54481 v 0.26575 q 0,0.54481 -0.62453,0.54481 z"
         style="font-size:27.2136px;font-family:Goldplay;-inkscape-font-specification:Goldplay;letter-spacing:4.49792px"
         id="path709" /><path
         d="m 141.7753,139.38516 q -1.91346,0 -3.6276,-0.70426 -1.70085,-0.70426 -2.93662,-1.91346 -1.22249,-1.22248 -1.94003,-2.92333 -0.70426,-1.71414 -0.70426,-3.64089 0,-2.56456 1.2092,-4.66405 1.20919,-2.11277 3.32197,-3.30868 2.11277,-1.19591 4.67734,-1.19591 2.09948,0 3.90664,0.83714 1.80715,0.82384 3.08279,2.2988 0.34548,0.4385 -0.0797,0.78399 l -0.30562,0.22589 q -0.41193,0.3322 -0.78399,-0.14617 -1.08961,-1.22248 -2.59114,-1.91345 -1.48824,-0.69097 -3.20238,-0.69097 -2.13935,0 -3.90664,1.00988 -1.754,0.99659 -2.76388,2.79045 -1.00988,1.78058 -1.00988,3.97308 0,2.1925 1.00988,3.98637 1.00988,1.78058 2.76388,2.79046 1.76729,1.00988 3.90664,1.00988 1.71414,0 3.21567,-0.69097 1.51482,-0.70426 2.57785,-1.91346 0.37206,-0.47836 0.78399,-0.14617 l 0.30562,0.2259 q 0.42521,0.34548 0.0797,0.78398 -1.27564,1.47496 -3.08279,2.3121 -1.80716,0.82385 -3.90664,0.82385 z"
         style="letter-spacing:5.55625px"
         id="path711" /><path
         d="m 161.52302,119.62606 -0.1063,-0.17274 q -0.27905,-0.41193 0.2126,-0.75741 l 3.89335,-2.5247 q 0.27905,-0.17274 0.50494,-0.11959 0.2259,0.0399 0.37206,0.25247 l 0.21261,0.34548 q 0.3322,0.53152 -0.21261,0.7707 l -4.07938,2.20579 q -0.31891,0.14617 -0.47836,0.15946 -0.15946,0.0133 -0.31891,-0.15946 z M 172.4058,138.455 q 0.25247,0.59796 -0.34548,0.59796 h -0.62454 q -0.25247,0 -0.37206,-0.11959 -0.11959,-0.13288 -0.25247,-0.45179 l -1.63441,-3.61431 h -10.01907 l -1.63441,3.61431 q -0.13288,0.31891 -0.25247,0.45179 -0.11959,0.11959 -0.37206,0.11959 h -0.59795 q -0.61125,0 -0.35878,-0.59796 l 7.6804,-16.84904 q 0.18604,-0.37206 0.51823,-0.37206 h 0.13288 q 0.34549,0 0.49165,0.37206 z m -12.65007,-4.95638 h 8.82316 l -4.41158,-9.81975 z"
         style="letter-spacing:5.55625px"
         id="path713" /><path
         d="m 194.71807,121.36678 q 0.26576,0 0.41193,0.17274 0.15945,0.15945 0.15945,0.42521 v 16.82247 q 0,0.18603 -0.11959,0.29233 -0.11959,0.10631 -0.27904,0.10631 h -0.11959 q -0.30563,0 -0.65111,-0.49165 L 182.82541,124.4097 v 14.0453 q 0,0.59796 -0.57138,0.59796 h -0.34548 q -0.26576,0 -0.42521,-0.15946 -0.14617,-0.17274 -0.14617,-0.4385 v -16.82247 q 0,-0.17274 0.11959,-0.27904 0.13288,-0.11959 0.27905,-0.11959 h 0.11959 q 0.31891,0 0.6511,0.47836 l 11.29471,14.29777 v -14.0453 q 0,-0.59795 0.57138,-0.59795 z"
         style="font-size:27.2136px;font-family:Goldplay;-inkscape-font-specification:Goldplay;letter-spacing:4.49792px"
         id="path715" /></g></g></svg>
