<svg xmlns="http://www.w3.org/2000/svg" version="1.1" xmlns:xlink="http://www.w3.org/1999/xlink" xmlns:svgjs="http://svgjs.com/svgjs" width="512" height="512" x="0" y="0" viewBox="0 0 512 512" style="enable-background:new 0 0 512 512" xml:space="preserve" class=""><g><path d="M437.677 381.891H138.185V10h289.492c5.523 0 10 4.477 10 10v361.891z" style="" fill="#b5b4ee" data-original="#b5b4ee" class=""></path><path d="m74.323 413.261.186-.091a28.265 28.265 0 0 1-.186-3.192v3.283z" style="" fill="#ffda8f" data-original="#ffda8f" class=""></path><path d="M102.411 381.891h35.774V10H96.131c-12.044 0-21.808 9.764-21.808 21.808v378.171c0-15.513 12.576-28.088 28.088-28.088z" style="" fill="#ffda8f" data-original="#ffda8f" class=""></path><path d="M138.185 381.891h-35.774c-15.512 0-28.088 12.575-28.088 28.088 0 1.08.067 2.143.186 3.192 1.585 14.009 13.469 24.896 27.902 24.896h326.543a8.722 8.722 0 0 0 8.723-8.723v-47.452H138.185z" style="" fill="#ffffff" data-original="#ffffff"></path><path d="M202.659 298.458c11.463-2.29 22.545 5.37 24.453 16.903l2.309 13.807-.017-106.215c0-10.965 8.889-19.855 19.855-19.855 10.965 0 19.854 8.889 19.854 19.855v-23.944c0-10.965 9.126-19.855 20.384-19.855 11.257 0 20.384 8.889 20.384 19.855v23.944c0-10.965 9.006-19.855 20.116-19.855s20.116 8.889 20.116 19.855v32.832c0-10.887 8.896-19.714 19.859-19.714a19.884 19.884 0 0 1 14.04 5.777c3.589 3.563 5.819 8.494 5.819 13.938v130.569c0 32.054-15.177 69.042-38.788 87.363v18.268c0 5.531-4.484 10.015-10.015 10.015h-92c-5.531 0-10.015-4.484-10.015-10.015v-21.079c-8.266-6.65-40.156-30.703-46.049-72.369l-6.857-77.989c-.921-10.507 6.21-20.025 16.552-22.091z" style="" fill="#ffd4b5" data-original="#ffd4b5" class=""></path><path d="M437.678 266.949V18.723A8.724 8.724 0 0 0 428.955 10H138.186v371.889h53.319M389.827 381.889h47.851v-24.436M138.185 381.891V10H96.131c-12.044 0-21.808 9.764-21.808 21.808v378.171" style="stroke-width:20;stroke-linecap:round;stroke-linejoin:round;stroke-miterlimit:10;" fill="none" stroke="#000000" stroke-width="20" stroke-linecap="round" stroke-linejoin="round" stroke-miterlimit="10" data-original="#000000" class=""></path><path d="M189.503 381.889h-87.09a27.981 27.981 0 0 0-19.859 8.232 27.961 27.961 0 0 0-8.232 19.859c0 15.513 12.579 28.081 28.091 28.081h104.584M379.001 438.062h49.954a8.717 8.717 0 0 0 8.723-8.723v-47.45h-45.849M437.677 311.768h0" style="stroke-width:20;stroke-linecap:round;stroke-linejoin:round;stroke-miterlimit:10;" fill="none" stroke="#000000" stroke-width="20" stroke-linecap="round" stroke-linejoin="round" stroke-miterlimit="10" data-original="#000000" class=""></path><path d="M202.659 298.458h0c11.463-2.29 22.545 5.37 24.453 16.903l2.309 13.807-.017-106.215c0-10.965 8.889-19.855 19.855-19.855 10.965 0 19.854 8.889 19.854 19.855v-23.944c0-10.965 9.126-19.855 20.384-19.855h0c11.257 0 20.384 8.889 20.384 19.855v23.944c0-10.965 9.006-19.855 20.116-19.855s20.116 8.889 20.116 19.855v32.832c0-10.887 8.896-19.714 19.859-19.714a19.884 19.884 0 0 1 14.04 5.777c3.589 3.563 5.819 8.494 5.819 13.938v130.569c0 32.054-15.177 69.042-38.788 87.363v18.268c0 5.531-4.484 10.015-10.015 10.015h-92c-5.531 0-10.015-4.484-10.015-10.015v-21.079c-8.266-6.65-40.156-30.703-46.049-72.369l-6.857-77.989c-.921-10.507 6.21-20.025 16.552-22.091zM350.113 255.785v61.901M309.881 222.953v94.733M269.114 222.953v94.733M214.774 78.651h146.313M234.247 122.716h107.368" style="stroke-width:20;stroke-linecap:round;stroke-linejoin:round;stroke-miterlimit:10;" fill="none" stroke="#000000" stroke-width="20" stroke-linecap="round" stroke-linejoin="round" stroke-miterlimit="10" data-original="#000000" class=""></path></g></svg>