<svg xmlns="http://www.w3.org/2000/svg" version="1.1" xmlns:xlink="http://www.w3.org/1999/xlink" xmlns:svgjs="http://svgjs.com/svgjs" width="512" height="512" x="0" y="0" viewBox="0 0 512 512" style="enable-background:new 0 0 512 512" xml:space="preserve" class=""><g><path d="M482.21 187.161s-17.766-3.801-26.554 16.65l-34.518 92.566-.29.353a22.877 22.877 0 0 0-4.199-5.801 22.944 22.944 0 0 0-16.244-6.734 22.848 22.848 0 0 0-12.386 3.644l-75.059 48.178c-62.786 38.161-56.808 104.241-56.808 104.241v58.023H347.9c5.523 0 10-4.477 10-10v-23.082l54.709-39.143c26.542-20.609 49.34-52.498 57.518-85.2l31.664-127.287c1.57-12.624-5.83-23.893-19.581-26.408z" style="" fill="#ffd4b5" data-original="#ffd4b5" class=""></path><path d="m199.039 336.015-75.059-48.178a22.846 22.846 0 0 0-12.386-3.644 22.947 22.947 0 0 0-16.244 6.734 22.853 22.853 0 0 0-4.199 5.801l-.29-.353-34.517-92.565c-8.787-20.451-26.554-16.65-26.554-16.65-13.751 2.516-21.151 13.784-19.583 26.407l31.664 127.287c8.178 32.702 30.976 64.591 57.518 85.2l54.709 39.143v23.082c0 5.523 4.477 10 10 10h91.748v-58.023c.001.001 5.98-66.079-56.807-104.241z" style="" fill="#ffd4b5" data-original="#ffd4b5" class=""></path><path d="M395.257 38.721c-33.333-33.333-87.376-33.333-120.709 0L256 57.268 237.453 38.72c-33.333-33.333-87.376-33.333-120.709 0s-33.333 87.376 0 120.709l125.382 125.29c7.692 7.686 20.158 7.684 27.847-.005L395.257 159.43c33.333-33.333 33.333-87.376 0-120.709z" style="" fill="#ff9eb1" data-original="#ff9eb1" class=""></path><path d="m421.139 296.376 34.518-92.566c8.787-20.451 26.554-16.65 26.554-16.65 13.751 2.516 21.151 13.785 19.583 26.407L470.13 340.854c-8.178 32.702-30.976 64.591-57.518 85.2l-54.709 39.143v23.082c0 5.523-4.477 10-10 10h-91.748v-58.023s-5.979-66.08 56.808-104.241l75.059-48.178a22.846 22.846 0 0 1 12.386-3.644c5.933 0 11.81 2.301 16.244 6.734 8.787 8.799 8.968 23.012.395 32.025L366.5 362.817" style="stroke-width:20;stroke-linecap:round;stroke-linejoin:round;stroke-miterlimit:10;" fill="none" stroke="#000000" stroke-width="20" stroke-linecap="round" stroke-linejoin="round" stroke-miterlimit="10" data-original="#000000" class=""></path><path d="m145.503 362.817-50.547-39.865c-8.573-9.013-8.393-23.226.395-32.025a22.944 22.944 0 0 1 16.244-6.734c4.275 0 8.584 1.196 12.386 3.644l75.059 48.178c62.786 38.161 56.808 104.241 56.808 104.241v58.023H164.1c-5.523 0-10-4.477-10-10v-23.082l-54.709-39.143c-26.543-20.609-49.34-52.498-57.518-85.2L10.207 213.568c-1.568-12.623 5.832-23.892 19.583-26.407 0 0 17.766-3.801 26.554 16.65l34.518 92.566M361.383 193.304l33.874-33.874c33.333-33.333 33.333-87.376 0-120.709h0c-33.333-33.333-87.376-33.333-120.709 0L256 57.268 237.453 38.72c-33.333-33.333-87.376-33.333-120.709 0h0c-33.333 33.333-33.333 87.376 0 120.709l125.382 125.29c7.692 7.686 20.158 7.684 27.847-.005l27.876-27.876M329.77 225.238h0" style="stroke-width:20;stroke-linecap:round;stroke-linejoin:round;stroke-miterlimit:10;" fill="none" stroke="#000000" stroke-width="20" stroke-linecap="round" stroke-linejoin="round" stroke-miterlimit="10" data-original="#000000" class=""></path></g></svg>